<svg width="25" height="25" viewBox="0 0 25 25" fill="none" xmlns="http://www.w3.org/2000/svg">
<path fill-rule="evenodd" clip-rule="evenodd" d="M16.3137 16.3159C16.4588 16.1707 16.6312 16.0554 16.8208 15.9768C17.0105 15.8982 17.2138 15.8577 17.4192 15.8577C17.6245 15.8577 17.8278 15.8982 18.0175 15.9768C18.2072 16.0554 18.3795 16.1707 18.5247 16.3159L24.5403 22.3316C24.8335 22.6245 24.9983 23.022 24.9984 23.4365C24.9986 23.851 24.834 24.2485 24.5411 24.5417C24.2481 24.8349 23.8506 24.9997 23.4361 24.9999C23.0217 25 22.6241 24.8355 22.3309 24.5425L16.3153 18.5269C16.17 18.3818 16.0548 18.2094 15.9761 18.0198C15.8975 17.8301 15.857 17.6267 15.857 17.4214C15.857 17.2161 15.8975 17.0128 15.9761 16.8231C16.0548 16.6334 16.17 16.4611 16.3153 16.3159H16.3137Z" fill="black"/>
<path fill-rule="evenodd" clip-rule="evenodd" d="M10.1562 18.75C11.2848 18.75 12.4023 18.5277 13.4449 18.0958C14.4876 17.664 15.4349 17.031 16.233 16.233C17.031 15.4349 17.664 14.4876 18.0958 13.4449C18.5277 12.4023 18.75 11.2848 18.75 10.1562C18.75 9.0277 18.5277 7.91021 18.0958 6.86756C17.664 5.82492 17.031 4.87755 16.233 4.07955C15.4349 3.28155 14.4876 2.64854 13.4449 2.21666C12.4023 1.78478 11.2848 1.5625 10.1562 1.5625C7.87705 1.5625 5.69119 2.46791 4.07955 4.07955C2.46791 5.69119 1.5625 7.87705 1.5625 10.1562C1.5625 12.4355 2.46791 14.6213 4.07955 16.233C5.69119 17.8446 7.87705 18.75 10.1562 18.75ZM20.3125 10.1562C20.3125 12.8499 19.2425 15.4331 17.3378 17.3378C15.4331 19.2425 12.8499 20.3125 10.1562 20.3125C7.46265 20.3125 4.87936 19.2425 2.9747 17.3378C1.07003 15.4331 0 12.8499 0 10.1562C0 7.46265 1.07003 4.87936 2.9747 2.9747C4.87936 1.07003 7.46265 0 10.1562 0C12.8499 0 15.4331 1.07003 17.3378 2.9747C19.2425 4.87936 20.3125 7.46265 20.3125 10.1562Z" fill="black"/>
</svg>
