<svg width="15" height="14" viewBox="0 0 15 14" fill="none" xmlns="http://www.w3.org/2000/svg">
<path d="M13.5898 13.1797C2.98673 13.1797 3.06532 13.1797 0.410156 13.1797C0.183449 13.1797 0 13.3631 0 13.5898C0 13.8165 0.183449 14 0.410156 14H13.5898C13.8165 14 13.9999 13.8165 13.9999 13.5898C13.9999 13.3631 13.8165 13.1797 13.5898 13.1797Z" fill="white"/>
<path d="M3.74607 9.07812H1.23047C1.00376 9.07812 0.820312 9.26157 0.820312 9.48828V12.3593H4.15622V9.48828C4.15622 9.26157 3.97277 9.07812 3.74607 9.07812Z" fill="white"/>
<path d="M13.8711 6H11.4102C11.1834 6 11 6.18345 11 6.41016V12.3242H14.2812V6.41016C14.2812 6.18345 14.0978 6 13.8711 6Z" fill="white"/>
<path d="M10.4424 3.40138L7.57133 0.120155C7.41113 -0.0400518 7.15155 -0.0400518 6.99135 0.120155L4.12025 3.40138C4.00289 3.51874 3.96765 3.69497 4.03133 3.84839C4.0946 4.00179 4.24442 4.10154 4.41023 4.10154H5.6407V12.3593H8.92195V4.10154H10.1524C10.3182 4.10154 10.4681 4.00182 10.5313 3.84839C10.595 3.69499 10.5598 3.51874 10.4424 3.40138Z" fill="white"/>
</svg>
