<svg width="12" height="15" viewBox="0 0 12 15" fill="none" xmlns="http://www.w3.org/2000/svg">
<path d="M8.13929 14.3623C8.69529 13.2754 9.35786 11.4247 8.43227 10.6267C7.57909 10.7519 6.88919 10.7527 6.32786 10.6295C4.91437 10.3193 4.46695 9.22473 4.85611 7.82301C2.95435 9.52164 2.87406 12.0263 3.57907 14.4381C3.69358 14.8299 3.24491 15.1508 2.89747 14.9244C2.77915 14.8473 0 13.0038 0 10.165C0 5.51425 5.39454 5.31415 5.39454 0.43991C5.39454 0.0675756 5.84091 -0.136211 6.13303 0.103283C8.28869 1.87069 12.2112 6.11928 11.9911 10.0268C11.882 11.964 10.8052 13.6118 8.79071 14.9244C8.40967 15.1726 7.93388 14.7638 8.13929 14.3623Z" fill="white"/>
</svg>
