<svg width="16" height="16" viewBox="0 0 16 16" fill="none" xmlns="http://www.w3.org/2000/svg">
<path d="M15.0907 6.81668C14.8445 6.63512 14.537 6.40832 14.4966 6.25806C14.4528 6.09319 14.6093 5.73215 14.736 5.44206C14.953 4.94396 15.177 4.4278 14.928 3.99857C14.6768 3.5638 14.1126 3.49979 13.568 3.43858C13.257 3.40379 12.8702 3.36068 12.7547 3.2445C12.6385 3.12831 12.5954 2.74154 12.5606 2.43127C12.4994 1.88657 12.4361 1.3231 12.0007 1.07126C11.6222 0.851445 11.0615 1.04345 10.5572 1.26326C10.2789 1.3843 9.98812 1.49977 9.74049 1.50257C9.59023 1.46224 9.36415 1.15474 9.18187 0.908478C8.86886 0.482771 8.51336 0 7.99997 0C7.48726 0 7.13111 0.482771 6.81735 0.90851C6.6351 1.15546 6.40899 1.46296 6.19613 1.50955C6.0083 1.50955 5.7203 1.38434 5.44205 1.26329C4.93632 1.04348 4.37493 0.853565 3.99928 1.07129C3.56311 1.32313 3.49982 1.88661 3.43858 2.43199C3.40378 2.74294 3.36068 3.12903 3.24518 3.24522C3.12899 3.36068 2.74222 3.40451 2.43195 3.43862C1.88657 3.49982 1.32238 3.56383 1.07126 3.99861C0.822911 4.42783 1.0469 4.94331 1.26326 5.44209C1.38988 5.73218 1.54708 6.09391 1.50257 6.25878C1.46224 6.40904 1.15545 6.63583 0.908476 6.8174C0.48277 7.13044 0 7.48659 0 7.99998C0 8.51337 0.48277 8.86956 0.909226 9.18329C1.15549 9.36485 1.46295 9.59165 1.50332 9.74191C1.54715 9.90678 1.39063 10.2678 1.26401 10.5579C1.04696 11.056 0.822976 11.5722 1.07201 12.0014C1.32313 12.4362 1.88732 12.5002 2.43202 12.5614C2.74297 12.5962 3.12974 12.6393 3.24524 12.7555C3.36143 12.8717 3.40453 13.2584 3.43933 13.5687C3.50053 14.1134 3.56386 14.6769 3.99932 14.9287C4.37565 15.1478 4.93636 14.9565 5.44208 14.7367C5.72033 14.6157 6.00625 14.4925 6.25877 14.4974C6.40903 14.5377 6.6351 14.8452 6.81738 15.0915C7.13111 15.5172 7.48661 16 8 16C8.51271 16 8.86886 15.5172 9.18262 15.0915C9.36487 14.8445 9.59097 14.537 9.80384 14.4898C9.99167 14.4898 10.2797 14.615 10.5579 14.736C11.065 14.9558 11.625 15.1465 12.0007 14.9287C12.4369 14.6769 12.5002 14.1134 12.5614 13.568C12.5962 13.2571 12.6393 12.871 12.7548 12.7548C12.871 12.6386 13.2577 12.5955 13.568 12.5607C14.1134 12.4995 14.6776 12.4362 14.9287 12.0007C15.1771 11.5715 14.9531 11.056 14.7367 10.5572C14.6101 10.2671 14.4536 9.90541 14.4974 9.74122C14.5377 9.59096 14.8445 9.36417 15.0915 9.1826C15.5172 8.86956 16 8.51337 16 7.99998C16 7.48659 15.5172 7.13044 15.0907 6.81668Z" fill="white"/>
</svg>
