<svg width="12" height="16" viewBox="0 0 12 16" fill="none" xmlns="http://www.w3.org/2000/svg">
<path d="M8.08077 1.75421C6.87141 2.96357 2.35353 7.48195 2.35353 7.48195C1.8655 7.96998 1.8655 8.76109 2.35353 9.24912L2.99759 9.89318C3.1601 10.0557 3.1601 10.3194 2.99759 10.4824L0.366022 13.114C-0.122007 13.602 -0.122007 14.3926 0.366022 14.8811C0.610285 15.1254 0.929822 15.2465 1.24986 15.2465C1.56939 15.2465 1.88943 15.1244 2.13319 14.8811L5.94271 11.0711C6.17701 10.8368 6.30861 10.5193 6.30861 10.1873C6.30861 9.85629 6.17701 9.53875 5.94271 9.30445L5.29865 8.66039C5.13614 8.49788 5.13614 8.23418 5.29865 8.07117L9.84794 3.52188C10.0104 3.35937 10.0104 3.09567 9.84794 2.93266L8.67049 1.75471C8.50748 1.5912 8.24377 1.5912 8.08077 1.75421Z" fill="white"/>
<path d="M6.79319 0.460113L8.0853 1.61762L10.1949 3.50892L11.4865 4.66643C11.7702 4.92067 12 4.83542 12 4.47601V0.651038C12.0005 0.291621 11.675 0 11.2742 0H7.00655C6.60476 0 6.51004 0.206378 6.79319 0.460113Z" fill="white"/>
</svg>
