<svg width="18" height="20" viewBox="0 0 18 20" fill="none" xmlns="http://www.w3.org/2000/svg">
<g clip-path="url(#clip0)">
<path d="M5.38578 10.1964L4.71041 11.0428C4.52249 11.2783 4.44784 11.5875 4.50558 11.8913L4.93813 14.1677C4.9819 14.3981 5.13001 14.5862 5.33429 14.671C5.5386 14.7557 5.76609 14.7234 5.94283 14.5846L6.71677 13.9767C6.0416 12.9154 5.58699 11.6218 5.38578 10.1964Z" fill="white"/>
<path d="M12.09 13.9767L12.864 14.5846C13.0407 14.7234 13.2682 14.7557 13.4725 14.6709C13.5575 14.6357 13.6327 14.5826 13.6948 14.5159C13.7819 14.4224 13.8431 14.3022 13.8687 14.1677L14.3013 11.8912C14.359 11.5875 14.2843 11.2782 14.0964 11.0427L13.421 10.1964C13.2198 11.6218 12.7652 12.9154 12.09 13.9767Z" fill="white"/>
<path d="M11.3737 13.7486C11.397 13.7237 11.4184 13.6965 11.4379 13.6673C11.7282 13.2306 11.9659 12.7646 12.1579 12.2827L6.64916 12.2827C6.84111 12.7646 7.07888 13.2306 7.36916 13.6673C7.48359 13.8394 7.66965 13.9402 7.86664 13.9402L10.9404 13.9402C11.1039 13.9402 11.26 13.8707 11.3737 13.7486Z" fill="white"/>
<path d="M12.4754 5.72961C11.8463 3.60741 10.4942 2.10252 9.81319 1.44712C9.57985 1.22254 9.22701 1.22254 8.99365 1.44714C8.88276 1.55385 8.75399 1.68317 8.61352 1.83395C7.89138 2.60909 6.85811 3.95301 6.33148 5.72963C5.91296 7.14154 5.76353 9.42163 6.39043 11.5344C6.40454 11.5325 6.41885 11.5313 6.43343 11.5313L12.3735 11.5313C12.388 11.5313 12.4023 11.5325 12.4164 11.5344C13.0433 9.42161 12.8939 7.14152 12.4754 5.72961ZM7.65333 6.69871C7.65333 5.66293 8.43838 4.82016 9.40342 4.82018C9.87088 4.82016 10.3104 5.01559 10.6409 5.37039C10.9715 5.7252 11.1535 6.19695 11.1535 6.69873C11.1535 7.21656 10.9572 7.68628 10.6404 8.02642C10.3234 8.36665 9.88599 8.57725 9.40343 8.57725C8.93597 8.57727 8.49646 8.38186 8.16591 8.02706C7.83536 7.67225 7.65332 7.20048 7.65333 6.69871Z" fill="white"/>
<path d="M9.40336 7.82584C9.98235 7.82584 10.4534 7.32021 10.4534 6.6987C10.4534 6.39763 10.3442 6.11458 10.1459 5.90169C9.94753 5.68881 9.68384 5.57158 9.40337 5.57157C9.11388 5.57156 8.85136 5.69798 8.66121 5.90208C8.47108 6.10617 8.3533 6.38796 8.35332 6.6987C8.35332 6.99976 8.46252 7.28282 8.66085 7.49571C8.85918 7.70859 9.12289 7.82584 9.40336 7.82584Z" fill="white"/>
<path d="M8.16998 17.2562C8.23332 17.1882 8.27251 17.0942 8.27248 16.9905L8.27248 15.2557C8.27248 15.0482 8.11577 14.88 7.92246 14.88C7.72916 14.88 7.57244 15.0482 7.57244 15.2557L7.57244 16.9905C7.57244 17.198 7.72914 17.3662 7.92246 17.3662C8.01912 17.3662 8.10663 17.3242 8.16998 17.2562Z" fill="white"/>
<path d="M9.40356 14.88C9.21026 14.88 9.05355 15.0482 9.05355 15.2557L9.05355 18.5909C9.05355 18.7984 9.21025 18.9667 9.40357 18.9667C9.50023 18.9667 9.58773 18.9246 9.65107 18.8566C9.71441 18.7886 9.7536 18.6947 9.75357 18.5909L9.75357 15.2558C9.75358 15.0482 9.59688 14.88 9.40356 14.88Z" fill="white"/>
<path d="M10.5346 15.2558L10.5346 16.9905C10.5346 17.198 10.6913 17.3662 10.8846 17.3662C10.9813 17.3662 11.0688 17.3241 11.1321 17.2562C11.1954 17.1882 11.2346 17.0943 11.2346 16.9905L11.2346 15.2558C11.2346 15.0483 11.0779 14.88 10.8846 14.88C10.6913 14.88 10.5346 15.0483 10.5346 15.2558Z" fill="white"/>
</g>
<defs>
<clipPath id="clip0">
<rect width="12.3936" height="12.3936" fill="white" transform="matrix(0.68165 -0.731679 0.68165 0.731679 0.955322 10.0542)"/>
</clipPath>
</defs>
</svg>
