<svg width="8" height="13" viewBox="0 0 8 13" fill="none" xmlns="http://www.w3.org/2000/svg">
<path d="M6.1692 7.72438L6.16943 7.72438C6.25961 7.72434 6.34814 7.74864 6.42566 7.79472C6.50318 7.84081 6.56683 7.90696 6.60988 7.98621C6.65293 8.06545 6.6738 8.15485 6.67027 8.24496C6.6669 8.33103 6.64141 8.4147 6.59634 8.48794L4.03403 11.9688L4.02269 11.9843L4.01255 12.0005C3.9673 12.073 3.90433 12.1328 3.82959 12.1742C3.75485 12.2157 3.67079 12.2374 3.58533 12.2374C3.49986 12.2374 3.4158 12.2157 3.34106 12.1742C3.26632 12.1328 3.20336 12.073 3.1581 12.0005L3.14797 11.9843L3.13662 11.9688L0.574308 8.48793C0.529242 8.4147 0.503748 8.33103 0.500381 8.24496C0.496856 8.15485 0.517721 8.06545 0.560774 7.98621C0.603827 7.90696 0.667472 7.84081 0.744995 7.79472C0.822516 7.74864 0.91104 7.72434 1.00122 7.72438H1.00145L6.1692 7.72438Z" stroke="#646464" stroke-opacity="0.8"/>
<path d="M1.00145 5.23741L1.00123 5.23741C0.911042 5.23745 0.822518 5.21315 0.744996 5.16707C0.667474 5.12098 0.603828 5.05483 0.560775 4.97559C0.517722 4.89634 0.496857 4.80694 0.500383 4.71683C0.50375 4.63076 0.529244 4.54709 0.57431 4.47386L3.13662 0.992947L3.14797 0.977534L3.1581 0.961298C3.20336 0.888797 3.26632 0.829005 3.34106 0.787553C3.4158 0.7461 3.49986 0.72435 3.58533 0.72435C3.67079 0.72435 3.75485 0.7461 3.82959 0.787553C3.90433 0.829005 3.9673 0.888797 4.01255 0.961298L4.02269 0.977534L4.03403 0.992947L6.59635 4.47386C6.64141 4.5471 6.66691 4.63077 6.67027 4.71683C6.6738 4.80694 6.65293 4.89634 6.60988 4.97559C6.56683 5.05483 6.50318 5.12098 6.42566 5.16707C6.34814 5.21315 6.25961 5.23745 6.16943 5.23741H6.1692L1.00145 5.23741Z" stroke="#646464" stroke-opacity="0.8"/>
</svg>
